REM DIRINDEX 1\6,1\2\7,1\2\8,1\2\9,1\3\10,1\3\11,1\4\12,1\4\13,1\4\14,1\5\15,1\5\16,1\5\17
REM DIRNAME folder01,folder02,folder03,folder04,folder05,folder06,folder07,folder08,folder09,folder10,folder11,folder12,folder13,folder14,folder15,folder16,folder17
TITLE ""
FILE "P2Q_t_0753-0770.mp3" MP3
  TRACK 01 AUDIO
    TITLE "10:cjc040_3160"
    INDEX 01 00:00:00
  TRACK 02 AUDIO
    TITLE "0:"
    INDEX 01 00:01:09
  TRACK 03 AUDIO
    TITLE "11:cjc040_3161"
    INDEX 01 00:01:62
  TRACK 04 AUDIO
    TITLE "0:"
    INDEX 01 00:06:37
  TRACK 05 AUDIO
    TITLE "10:cjc040_3162"
    INDEX 01 00:07:13
  TRACK 06 AUDIO
    TITLE "0:"
    INDEX 01 00:08:30
  TRACK 07 AUDIO
    TITLE "11:cjc040_3163"
    INDEX 01 00:09:02
  TRACK 08 AUDIO
    TITLE "0:"
    INDEX 01 00:10:19
  TRACK 09 AUDIO
    TITLE "10:cjc040_3164"
    INDEX 01 00:10:72
  TRACK 10 AUDIO
    TITLE "0:"
    INDEX 01 00:12:28
  TRACK 11 AUDIO
    TITLE "11:cjc040_3165"
    INDEX 01 00:13:06
  TRACK 12 AUDIO
    TITLE "0:"
    INDEX 01 00:14:49
  TRACK 13 AUDIO
    TITLE "10:cjc040_3166"
    INDEX 01 00:15:27
  TRACK 14 AUDIO
    TITLE "0:"
    INDEX 01 00:16:34
  TRACK 15 AUDIO
    TITLE "11:cjc040_3167"
    INDEX 01 00:17:12
  TRACK 16 AUDIO
    TITLE "0:"
    INDEX 01 00:18:13
  TRACK 17 AUDIO
    TITLE "10:cjc040_3168"
    INDEX 01 00:18:66
  TRACK 18 AUDIO
    TITLE "0:"
    INDEX 01 00:20:06
  TRACK 19 AUDIO
    TITLE "11:cjc040_3169"
    INDEX 01 00:20:59
  TRACK 20 AUDIO
    TITLE "0:"
    INDEX 01 00:22:19
  TRACK 21 AUDIO
    TITLE "10:cjc040_3170"
    INDEX 01 00:22:70
  TRACK 22 AUDIO
    TITLE "0:"
    INDEX 01 00:24:18
  TRACK 23 AUDIO
    TITLE "11:cjc040_3171"
    INDEX 01 00:24:72
  TRACK 24 AUDIO
    TITLE "0:"
    INDEX 01 00:26:42
  TRACK 25 AUDIO
    TITLE "10:cjc040_3172"
    INDEX 01 00:27:16
  TRACK 26 AUDIO
    TITLE "0:"
    INDEX 01 00:28:49
  TRACK 27 AUDIO
    TITLE "11:cjc040_3173"
    INDEX 01 00:29:31
  TRACK 28 AUDIO
    TITLE "0:"
    INDEX 01 00:32:27
  TRACK 29 AUDIO
    TITLE "10:cjc040_3174"
    INDEX 01 00:33:07
  TRACK 30 AUDIO
    TITLE "0:"
    INDEX 01 00:34:12
  TRACK 31 AUDIO
    TITLE "11:cjc040_3175"
    INDEX 01 00:34:73
  TRACK 32 AUDIO
    TITLE "0:"
    INDEX 01 00:38:00
  TRACK 33 AUDIO
    TITLE "10:cjc040_3176"
    INDEX 01 00:38:53
  TRACK 34 AUDIO
    TITLE "0:"
    INDEX 01 00:39:72
  TRACK 35 AUDIO
    TITLE "11:cjc040_3177"
    INDEX 01 00:40:46
  TRACK 36 AUDIO
    TITLE "0:"
    INDEX 01 00:43:66
  TRACK 37 AUDIO
    TITLE "10:cjc040_3178"
    INDEX 01 00:44:44
  TRACK 38 AUDIO
    TITLE "0:"
    INDEX 01 00:45:43
  TRACK 39 AUDIO
    TITLE "11:cjc040_3179"
    INDEX 01 00:46:23
  TRACK 40 AUDIO
    TITLE "0:"
    INDEX 01 00:49:45
  TRACK 41 AUDIO
    TITLE "10:cjc040_3180"
    INDEX 01 00:50:29
  TRACK 42 AUDIO
    TITLE "0:"
    INDEX 01 00:51:42
  TRACK 43 AUDIO
    TITLE "11:cjc040_3181"
    INDEX 01 00:52:20
  TRACK 44 AUDIO
    TITLE "0:"
    INDEX 01 00:55:04
  TRACK 45 AUDIO
    TITLE "10:cjc040_3182"
    INDEX 01 00:55:69
  TRACK 46 AUDIO
    TITLE "0:"
    INDEX 01 00:57:09
  TRACK 47 AUDIO
    TITLE "11:cjc040_3183"
    INDEX 01 00:57:58
  TRACK 48 AUDIO
    TITLE "0:"
    INDEX 01 01:01:40
  TRACK 49 AUDIO
    TITLE "10:cjc040_3184"
    INDEX 01 01:02:18
  TRACK 50 AUDIO
    TITLE "0:"
    INDEX 01 01:03:33
  TRACK 51 AUDIO
    TITLE "11:cjc040_3185"
    INDEX 01 01:04:17
  TRACK 52 AUDIO
    TITLE "0:"
    INDEX 01 01:06:73
  TRACK 53 AUDIO
    TITLE "10:cjc040_3186"
    INDEX 01 01:07:57
  TRACK 54 AUDIO
    TITLE "0:"
    INDEX 01 01:08:60
  TRACK 55 AUDIO
    TITLE "11:cjc040_3187"
    INDEX 01 01:09:36
  TRACK 56 AUDIO
    TITLE "0:"
    INDEX 01 01:12:30
  TRACK 57 AUDIO
    TITLE "10:cjc040_3188"
    INDEX 01 01:13:10
  TRACK 58 AUDIO
    TITLE "0:"
    INDEX 01 01:14:21
  TRACK 59 AUDIO
    TITLE "11:cjc040_3189"
    INDEX 01 01:15:03
  TRACK 60 AUDIO
    TITLE "0:"
    INDEX 01 01:17:57
  TRACK 61 AUDIO
    TITLE "10:cjc040_3190"
    INDEX 01 01:18:35
  TRACK 62 AUDIO
    TITLE "0:"
    INDEX 01 01:19:60
  TRACK 63 AUDIO
    TITLE "11:cjc040_3191"
    INDEX 01 01:20:40
  TRACK 64 AUDIO
    TITLE "0:"
    INDEX 01 01:22:01
  TRACK 65 AUDIO
    TITLE "10:cjc040_3192"
    INDEX 01 01:22:56
  TRACK 66 AUDIO
    TITLE "0:"
    INDEX 01 01:24:00
  TRACK 67 AUDIO
    TITLE "11:cjc040_3193"
    INDEX 01 01:24:53
  TRACK 68 AUDIO
    TITLE "0:"
    INDEX 01 01:26:36
  TRACK 69 AUDIO
    TITLE "10:cjc040_3194"
    INDEX 01 01:27:28
  TRACK 70 AUDIO
    TITLE "0:"
    INDEX 01 01:28:18
  TRACK 71 AUDIO
    TITLE "11:cjc040_3195"
    INDEX 01 01:28:74
  TRACK 72 AUDIO
    TITLE "0:"
    INDEX 01 01:30:03
